<svg xmlns="http://www.w3.org/2000/svg" viewBox="0 0 64 64">
  <defs>
    <linearGradient id="brand" x1="8" y1="8" x2="56" y2="56" gradientUnits="userSpaceOnUse">
      <stop stop-color="#2563eb"/>
      <stop offset="1" stop-color="#7c3aed"/>
    </linearGradient>
  </defs>
  <rect width="64" height="64" rx="18" fill="url(#brand)"/>
  <path fill="#fff" d="M17 18h30a5 5 0 0 1 5 5v17a5 5 0 0 1-5 5H34l-10 7v-7h-7a5 5 0 0 1-5-5V23a5 5 0 0 1 5-5Zm7 10a3 3 0 1 0 0 6 3 3 0 0 0 0-6Zm8 0a3 3 0 1 0 0 6 3 3 0 0 0 0-6Zm8 0a3 3 0 1 0 0 6 3 3 0 0 0 0-6Z"/>
</svg>
