<svg xmlns="http://www.w3.org/2000/svg" viewBox="0 0 1200 750" width="1200" height="750">
<defs>
<linearGradient id="g14" x1="0" y1="0" x2="1" y2="1"><stop offset="0" stop-color="#4f46e5"/><stop offset="1" stop-color="#7c6cf6"/></linearGradient>
<pattern id="g14d" width="28" height="28" patternUnits="userSpaceOnUse"><circle cx="2" cy="2" r="2" fill="#fff" opacity=".22"/></pattern>
</defs>
<rect width="1200" height="750" fill="url(#g14)"/>
<circle cx="980" cy="120" r="260" fill="#fff" opacity=".1"/>
<circle cx="220" cy="700" r="180" fill="#fff" opacity=".08"/>
<rect x="60" y="520" width="280" height="170" fill="url(#g14d)"/>
<g transform="translate(600 375) rotate(-3)">
<rect x="-400" y="-190" width="800" height="380" rx="44" fill="#eef0ff"/>
<rect x="-400" y="-190" width="800" height="380" rx="44" fill="none" stroke="#fff" stroke-opacity=".7" stroke-width="3"/>
<g transform="translate(-230 0)"><path d="M-90 -24 H-56 L-16 -60 V60 L-56 24 H-90Z" fill="#4f46e5"/><path d="M14 -34 a48 48 0 0 1 0 68 M42 -62 a88 88 0 0 1 0 124" fill="none" stroke="#4f46e5" stroke-width="11" stroke-linecap="round"/></g>
<text x="-80" y="22" font-family="Inter, 'Segoe UI', Arial, sans-serif" font-size="76" font-weight="800" fill="#4f46e5" letter-spacing="-1">/θ/  /ð/</text>
<rect x="-80" y="58" width="208" height="12" rx="6" fill="#7c6cf6" opacity=".55"/>
</g>
</svg>
