<svg xmlns="http://www.w3.org/2000/svg" viewBox="0 0 1200 750" width="1200" height="750">
<defs>
<linearGradient id="g12" x1="0" y1="0" x2="1" y2="1"><stop offset="0" stop-color="#0f766e"/><stop offset="1" stop-color="#2dd4bf"/></linearGradient>
<pattern id="g12d" width="28" height="28" patternUnits="userSpaceOnUse"><circle cx="2" cy="2" r="2" fill="#fff" opacity=".22"/></pattern>
</defs>
<rect width="1200" height="750" fill="url(#g12)"/>
<circle cx="980" cy="120" r="260" fill="#fff" opacity=".1"/>
<circle cx="220" cy="700" r="180" fill="#fff" opacity=".08"/>
<rect x="60" y="520" width="280" height="170" fill="url(#g12d)"/>
<g transform="translate(600 375) rotate(-3)">
<rect x="-400" y="-190" width="800" height="380" rx="44" fill="#e7faf6"/>
<rect x="-400" y="-190" width="800" height="380" rx="44" fill="none" stroke="#fff" stroke-opacity=".7" stroke-width="3"/>
<g transform="translate(-230 0)"><rect x="-100" y="-10" width="10" height="20" rx="5" fill="#0f766e"/><rect x="-81" y="-22" width="10" height="44" rx="5" fill="#0f766e"/><rect x="-62" y="-35" width="10" height="70" rx="5" fill="#0f766e"/><rect x="-43" y="-48" width="10" height="96" rx="5" fill="#0f766e"/><rect x="-24" y="-30" width="10" height="60" rx="5" fill="#0f766e"/><rect x="-5" y="-55" width="10" height="110" rx="5" fill="#0f766e"/><rect x="14" y="-37" width="10" height="74" rx="5" fill="#0f766e"/><rect x="33" y="-25" width="10" height="50" rx="5" fill="#0f766e"/><rect x="52" y="-43" width="10" height="86" rx="5" fill="#0f766e"/><rect x="71" y="-20" width="10" height="40" rx="5" fill="#0f766e"/><rect x="90" y="-11" width="10" height="22" rx="5" fill="#0f766e"/></g>
<text x="-80" y="22" font-family="Inter, 'Segoe UI', Arial, sans-serif" font-size="76" font-weight="800" fill="#0f766e" letter-spacing="-1">Listen</text>
<rect x="-80" y="58" width="156" height="12" rx="6" fill="#2dd4bf" opacity=".55"/>
</g>
</svg>
